# Blender v3.1.2 OBJ File: ''
# www.blender.org
mtllib table.mtl
o Cube.001
v -0.562270 0.541022 1.000000
v -0.562270 0.541022 -1.000000
v 0.562270 0.541022 -1.000000
v 0.562270 0.541022 1.000000
v -0.562270 0.599815 1.000000
v 0.562270 0.599815 1.000000
v 0.562270 0.599815 -1.000000
v -0.562270 0.599815 -1.000001
v -0.497893 -0.215794 -0.835204
v -0.497893 -0.215794 -0.926503
v -0.445167 -0.215794 -0.926503
v -0.445167 -0.215794 -0.835204
v -0.497893 0.550058 -0.835204
v -0.445167 0.550058 -0.835204
v -0.445167 0.550058 -0.926503
v -0.497893 0.550058 -0.926503
v 0.443770 -0.215794 -0.835204
v 0.443770 -0.215794 -0.926503
v 0.496496 -0.215794 -0.926503
v 0.496496 -0.215794 -0.835204
v 0.443770 0.550058 -0.835204
v 0.496496 0.550058 -0.835204
v 0.496496 0.550058 -0.926503
v 0.443770 0.550058 -0.926503
v -0.497893 -0.215794 0.902016
v -0.497893 -0.215794 0.810718
v -0.445166 -0.215794 0.810718
v -0.445166 -0.215794 0.902016
v -0.497893 0.550058 0.902016
v -0.445166 0.550058 0.902016
v -0.445166 0.550058 0.810718
v -0.497893 0.550058 0.810718
v 0.443770 -0.215794 0.902016
v 0.443770 -0.215794 0.810718
v 0.496496 -0.215794 0.810718
v 0.496496 -0.215794 0.902016
v 0.443770 0.550058 0.902016
v 0.496496 0.550058 0.902016
v 0.496496 0.550058 0.810718
v 0.443770 0.550058 0.810718
v -0.498763 0.482229 0.903381
v -0.498763 0.482229 -0.926543
v -0.498763 0.541022 -0.926544
v -0.498763 0.541022 0.903380
v -0.516019 0.482229 0.903381
v -0.516019 0.541022 0.903380
v -0.516019 0.541022 -0.926544
v -0.516019 0.482229 -0.926543
v 0.514173 0.482229 0.903380
v 0.514173 0.482229 -0.926543
v 0.514173 0.541022 -0.926544
v 0.514173 0.541022 0.903380
v 0.496917 0.482229 0.903380
v 0.496917 0.541022 0.903380
v 0.496918 0.541022 -0.926544
v 0.496917 0.482229 -0.926543
v 0.514173 0.482229 0.903380
v -0.516019 0.482229 0.903381
v -0.516019 0.541022 0.903380
v 0.514173 0.541022 0.903381
v 0.514173 0.482229 0.920636
v 0.514173 0.541022 0.920636
v -0.516019 0.541022 0.920636
v -0.516019 0.482229 0.920636
v 0.514173 0.482229 -0.943799
v -0.516019 0.482229 -0.943799
v -0.516019 0.541022 -0.943799
v 0.514173 0.541022 -0.943799
v 0.514173 0.482229 -0.926543
v 0.514173 0.541022 -0.926543
v -0.516019 0.541022 -0.926544
v -0.516019 0.482229 -0.926543
vt 0.384024 0.000000
vt 0.768047 0.682988
vt 0.384024 0.682988
vt 0.384024 0.682988
vt 0.000000 0.000000
vt 0.384024 0.000000
vt 0.768047 0.682988
vt 0.788125 0.000000
vt 0.788125 0.682988
vt 0.939768 0.000000
vt 0.919690 0.384024
vt 0.919690 0.000000
vt 0.808202 0.000000
vt 0.788125 0.682988
vt 0.788125 0.000000
vt 0.939768 0.384024
vt 0.959845 0.000000
vt 0.959845 0.384024
vt 0.224407 0.682988
vt 0.242413 0.714166
vt 0.224407 0.714166
vt 0.188396 0.944522
vt 0.170390 0.682988
vt 0.188396 0.682988
vt 0.116373 0.944522
vt 0.098367 0.682988
vt 0.116373 0.682988
vt 0.901736 0.886442
vt 0.870558 0.624908
vt 0.901736 0.624908
vt 0.839380 0.624908
vt 0.870558 0.886442
vt 0.839380 0.886442
vt 0.242413 0.682988
vt 0.260418 0.714166
vt 0.242413 0.714166
vt 0.152384 0.944522
vt 0.134379 0.682988
vt 0.152384 0.682988
vt 0.206401 0.944522
vt 0.188396 0.682988
vt 0.206401 0.682988
vt 0.839380 0.886442
vt 0.808202 0.624908
vt 0.839380 0.624908
vt 0.888512 0.000000
vt 0.919690 0.261534
vt 0.888512 0.261534
vt 0.206401 0.682988
vt 0.224407 0.714166
vt 0.206401 0.714166
vt 0.098367 0.944522
vt 0.080361 0.682988
vt 0.098367 0.682988
vt 0.080361 0.944522
vt 0.062355 0.682988
vt 0.080361 0.682988
vt 0.062355 0.944522
vt 0.031178 0.682988
vt 0.901736 0.624908
vt 0.932914 0.886442
vt 0.901736 0.886442
vt 0.260418 0.682988
vt 0.278424 0.714166
vt 0.260418 0.714166
vt 0.134379 0.944522
vt 0.116373 0.682988
vt 0.134379 0.682988
vt 0.170390 0.944522
vt 0.152384 0.682988
vt 0.170390 0.682988
vt 0.031178 0.944522
vt 0.000000 0.682988
vt 0.031178 0.682988
vt 0.888512 0.261534
vt 0.919690 0.523068
vt 0.888512 0.523068
vt 0.888512 0.624908
vt 0.868434 0.000000
vt 0.888512 0.000000
vt 0.808202 0.624908
vt 0.828280 0.000000
vt 0.828280 0.624908
vt 0.985815 0.976712
vt 0.979923 0.351804
vt 0.985815 0.351804
vt 0.848357 0.000000
vt 0.868435 0.624908
vt 0.848357 0.624908
vt 0.828280 0.624908
vt 0.848357 0.000000
vt 0.848357 0.624908
vt 0.991708 0.976712
vt 0.985815 0.351804
vt 0.991708 0.351804
vt 0.939768 0.384024
vt 0.959845 0.735828
vt 0.939768 0.735828
vt 0.979923 0.000000
vt 0.959845 0.351804
vt 0.959845 0.000000
vt 0.290209 0.703066
vt 0.284317 0.682988
vt 0.290210 0.682988
vt 0.933875 0.384024
vt 0.301995 0.703066
vt 0.296102 0.682988
vt 0.301995 0.682988
vt 0.979923 0.000000
vt 1.000000 0.351804
vt 0.979923 0.351804
vt 0.979923 0.351804
vt 0.959845 0.703609
vt 0.959845 0.351804
vt 0.284317 0.703066
vt 0.278424 0.682988
vt 0.284317 0.682988
vt 0.997601 0.703609
vt 0.991708 0.351804
vt 0.997601 0.351804
vt 0.296102 0.703066
vt 0.290210 0.682988
vt 0.296102 0.682988
vt 0.768047 0.000000
vt 0.000000 0.682988
vt 0.768047 0.000000
vt 0.939768 0.384024
vt 0.808202 0.682988
vt 0.939768 0.000000
vt 0.242413 0.682988
vt 0.170390 0.944522
vt 0.098367 0.944522
vt 0.870558 0.886442
vt 0.870558 0.624908
vt 0.260418 0.682988
vt 0.134379 0.944522
vt 0.188396 0.944522
vt 0.808202 0.886442
vt 0.919690 0.000000
vt 0.224407 0.682988
vt 0.080361 0.944522
vt 0.031178 0.944522
vt 0.932914 0.624908
vt 0.278424 0.682988
vt 0.116373 0.944522
vt 0.152384 0.944522
vt 0.000000 0.944522
vt 0.919690 0.261534
vt 0.868434 0.624908
vt 0.808202 0.000000
vt 0.979923 0.976712
vt 0.868435 0.000000
vt 0.828280 0.000000
vt 0.985815 0.976712
vt 0.959845 0.384024
vt 0.979923 0.351804
vt 0.284317 0.703066
vt 0.933875 0.735828
vt 0.296102 0.703066
vt 1.000000 0.000000
vt 0.979923 0.703609
vt 0.278424 0.703066
vt 0.991708 0.703609
vt 0.290210 0.703066
vn 0.0000 -1.0000 -0.0000
vn -0.0000 1.0000 0.0000
vn -1.0000 0.0000 0.0000
vn 0.0000 -0.0000 -1.0000
vn 1.0000 0.0000 0.0000
vn 0.0000 0.0000 1.0000
usemtl Material.004
s 1
f 2/1/1 4/2/1 1/3/1
f 5/4/2 7/5/2 8/6/2
f 5/7/3 2/8/3 1/9/3
f 8/10/4 3/11/4 2/12/4
f 7/13/5 4/14/5 3/15/5
f 1/16/6 6/17/6 5/18/6
f 10/19/1 12/20/1 9/21/1
f 9/22/6 14/23/6 13/24/6
f 11/25/4 16/26/4 15/27/4
f 10/28/3 13/29/3 16/30/3
f 12/31/5 15/32/5 14/33/5
f 18/34/1 20/35/1 17/36/1
f 17/37/6 22/38/6 21/39/6
f 19/40/4 24/41/4 23/42/4
f 18/43/3 21/44/3 24/45/3
f 20/46/5 23/47/5 22/48/5
f 26/49/1 28/50/1 25/51/1
f 25/52/6 30/53/6 29/54/6
f 27/55/4 32/56/4 31/57/4
f 26/58/3 29/59/3 32/56/3
f 28/60/5 31/61/5 30/62/5
f 34/63/1 36/64/1 33/65/1
f 33/66/6 38/67/6 37/68/6
f 35/69/4 40/70/4 39/71/4
f 34/72/3 37/73/3 40/74/3
f 36/75/5 39/76/5 38/77/5
f 42/78/5 44/79/5 41/80/5
f 46/81/3 48/82/3 45/83/3
f 41/84/1 48/85/1 42/86/1
f 50/87/5 52/88/5 49/89/5
f 54/90/3 56/91/3 53/92/3
f 49/93/1 56/94/1 50/95/1
f 58/96/4 60/97/4 57/98/4
f 62/99/6 64/100/6 61/101/6
f 58/102/3 63/103/3 59/104/3
f 57/98/1 64/105/1 58/96/1
f 60/106/5 61/107/5 57/108/5
f 66/109/4 68/110/4 65/111/4
f 70/112/6 72/113/6 69/114/6
f 66/115/3 71/116/3 67/117/3
f 65/118/1 72/119/1 66/120/1
f 68/121/5 69/122/5 65/123/5
f 2/1/1 3/124/1 4/2/1
f 5/4/2 6/125/2 7/5/2
f 5/7/3 8/126/3 2/8/3
f 8/10/4 7/127/4 3/11/4
f 7/13/5 6/128/5 4/14/5
f 1/16/6 4/129/6 6/17/6
f 10/19/1 11/130/1 12/20/1
f 9/22/6 12/131/6 14/23/6
f 11/25/4 10/132/4 16/26/4
f 10/28/3 9/133/3 13/29/3
f 12/31/5 11/134/5 15/32/5
f 18/34/1 19/135/1 20/35/1
f 17/37/6 20/136/6 22/38/6
f 19/40/4 18/137/4 24/41/4
f 18/43/3 17/138/3 21/44/3
f 20/46/5 19/139/5 23/47/5
f 26/49/1 27/140/1 28/50/1
f 25/52/6 28/141/6 30/53/6
f 27/55/4 26/58/4 32/56/4
f 26/58/3 25/142/3 29/59/3
f 28/60/5 27/143/5 31/61/5
f 34/63/1 35/144/1 36/64/1
f 33/66/6 36/145/6 38/67/6
f 35/69/4 34/146/4 40/70/4
f 34/72/3 33/147/3 37/73/3
f 36/75/5 35/148/5 39/76/5
f 42/78/5 43/149/5 44/79/5
f 46/81/3 47/150/3 48/82/3
f 41/84/1 45/151/1 48/85/1
f 50/87/5 51/152/5 52/88/5
f 54/90/3 55/153/3 56/91/3
f 49/93/1 53/154/1 56/94/1
f 58/96/4 59/155/4 60/97/4
f 62/99/6 63/156/6 64/100/6
f 58/102/3 64/157/3 63/103/3
f 57/98/1 61/158/1 64/105/1
f 60/106/5 62/159/5 61/107/5
f 66/109/4 67/160/4 68/110/4
f 70/112/6 71/161/6 72/113/6
f 66/115/3 72/162/3 71/116/3
f 65/118/1 69/163/1 72/119/1
f 68/121/5 70/164/5 69/122/5
